0
SECTION
2
ENTITIES
0
POINT
8
POINTS
10
5000.0000
20
5000.0000
30
412.5000
0
TEXT
8
LABELS
10
5000.0000
20
5000.0000
30
412.5000
40
1.0
1
100
0
POINT
8
POINTS
10
4750.0000
20
5000.0000
30
410.2500
0
TEXT
8
LABELS
10
4750.0000
20
5000.0000
30
410.2500
40
1.0
1
101
0
POINT
8
POINTS
10
4750.0000
20
4800.0000
30
408.7500
0
TEXT
8
LABELS
10
4750.0000
20
4800.0000
30
408.7500
40
1.0
1
102
0
POINT
8
POINTS
10
4875.0000
20
4800.0000
30
409.1000
0
TEXT
8
LABELS
10
4875.0000
20
4800.0000
30
409.1000
40
1.0
1
103
0
POINT
8
POINTS
10
4875.0000
20
4900.0000
30
411.3000
0
TEXT
8
LABELS
10
4875.0000
20
4900.0000
30
411.3000
40
1.0
1
104
0
POINT
8
POINTS
10
5000.0000
20
4900.0000
30
412.0000
0
TEXT
8
LABELS
10
5000.0000
20
4900.0000
30
412.0000
40
1.0
1
105
0
ENDSEC
0
EOF
